<mxfile host="app.diagrams.net" modified="2024-05-21T15:40:13.414Z" agent="Mozilla/5.0 (Windows NT 10.0; Win64; x64) AppleWebKit/537.36 (KHTML, like Gecko) Chrome/124.0.0.0 Safari/537.36" etag="cmMqbq3AjXEDqrpwOI9-" version="24.4.4" type="device">
  <diagram id="C5RBs43oDa-KdzZeNtuy" name="Page-1">
    <mxGraphModel dx="2261" dy="738" grid="1" gridSize="10" guides="1" tooltips="1" connect="1" arrows="1" fold="1" page="1" pageScale="1" pageWidth="827" pageHeight="1169" math="0" shadow="0">
      <root>
        <mxCell id="WIyWlLk6GJQsqaUBKTNV-0" />
        <mxCell id="WIyWlLk6GJQsqaUBKTNV-1" parent="WIyWlLk6GJQsqaUBKTNV-0" />
        <mxCell id="zkfFHV4jXpPFQw0GAbJ--6" value="ProProceso" style="swimlane;fontStyle=0;align=center;verticalAlign=top;childLayout=stackLayout;horizontal=1;startSize=26;horizontalStack=0;resizeParent=1;resizeLast=0;collapsible=1;marginBottom=0;rounded=0;shadow=0;strokeWidth=1;" parent="WIyWlLk6GJQsqaUBKTNV-1" vertex="1">
          <mxGeometry x="-670" y="710" width="160" height="150" as="geometry">
            <mxRectangle x="130" y="380" width="160" height="26" as="alternateBounds" />
          </mxGeometry>
        </mxCell>
        <mxCell id="zkfFHV4jXpPFQw0GAbJ--7" value="# id : int" style="text;align=left;verticalAlign=top;spacingLeft=4;spacingRight=4;overflow=hidden;rotatable=0;points=[[0,0.5],[1,0.5]];portConstraint=eastwest;" parent="zkfFHV4jXpPFQw0GAbJ--6" vertex="1">
          <mxGeometry y="26" width="160" height="26" as="geometry" />
        </mxCell>
        <mxCell id="zkfFHV4jXpPFQw0GAbJ--8" value="# pro_name: string" style="text;align=left;verticalAlign=top;spacingLeft=4;spacingRight=4;overflow=hidden;rotatable=0;points=[[0,0.5],[1,0.5]];portConstraint=eastwest;rounded=0;shadow=0;html=0;" parent="zkfFHV4jXpPFQw0GAbJ--6" vertex="1">
          <mxGeometry y="52" width="160" height="26" as="geometry" />
        </mxCell>
        <mxCell id="_VrNb_PbdVtPy9m1OPbP-15" value="# pro_prefix: string" style="text;align=left;verticalAlign=top;spacingLeft=4;spacingRight=4;overflow=hidden;rotatable=0;points=[[0,0.5],[1,0.5]];portConstraint=eastwest;rounded=0;shadow=0;html=0;" parent="zkfFHV4jXpPFQw0GAbJ--6" vertex="1">
          <mxGeometry y="78" width="160" height="26" as="geometry" />
        </mxCell>
        <mxCell id="zkfFHV4jXpPFQw0GAbJ--9" value="" style="line;html=1;strokeWidth=1;align=left;verticalAlign=middle;spacingTop=-1;spacingLeft=3;spacingRight=3;rotatable=0;labelPosition=right;points=[];portConstraint=eastwest;" parent="zkfFHV4jXpPFQw0GAbJ--6" vertex="1">
          <mxGeometry y="104" width="160" height="8" as="geometry" />
        </mxCell>
        <mxCell id="zkfFHV4jXpPFQw0GAbJ--13" value="TipTipoDoc" style="swimlane;fontStyle=0;align=center;verticalAlign=top;childLayout=stackLayout;horizontal=1;startSize=26;horizontalStack=0;resizeParent=1;resizeLast=0;collapsible=1;marginBottom=0;rounded=0;shadow=0;strokeWidth=1;" parent="WIyWlLk6GJQsqaUBKTNV-1" vertex="1">
          <mxGeometry x="580" y="980" width="160" height="140" as="geometry">
            <mxRectangle x="340" y="380" width="170" height="26" as="alternateBounds" />
          </mxGeometry>
        </mxCell>
        <mxCell id="_VrNb_PbdVtPy9m1OPbP-16" value="# id : int" style="text;align=left;verticalAlign=top;spacingLeft=4;spacingRight=4;overflow=hidden;rotatable=0;points=[[0,0.5],[1,0.5]];portConstraint=eastwest;" parent="zkfFHV4jXpPFQw0GAbJ--13" vertex="1">
          <mxGeometry y="26" width="160" height="26" as="geometry" />
        </mxCell>
        <mxCell id="_VrNb_PbdVtPy9m1OPbP-18" value="# tip_name: string" style="text;align=left;verticalAlign=top;spacingLeft=4;spacingRight=4;overflow=hidden;rotatable=0;points=[[0,0.5],[1,0.5]];portConstraint=eastwest;rounded=0;shadow=0;html=0;" parent="zkfFHV4jXpPFQw0GAbJ--13" vertex="1">
          <mxGeometry y="52" width="160" height="26" as="geometry" />
        </mxCell>
        <mxCell id="_VrNb_PbdVtPy9m1OPbP-17" value="# tip_prefix: string" style="text;align=left;verticalAlign=top;spacingLeft=4;spacingRight=4;overflow=hidden;rotatable=0;points=[[0,0.5],[1,0.5]];portConstraint=eastwest;rounded=0;shadow=0;html=0;" parent="zkfFHV4jXpPFQw0GAbJ--13" vertex="1">
          <mxGeometry y="78" width="160" height="26" as="geometry" />
        </mxCell>
        <mxCell id="zkfFHV4jXpPFQw0GAbJ--15" value="" style="line;html=1;strokeWidth=1;align=left;verticalAlign=middle;spacingTop=-1;spacingLeft=3;spacingRight=3;rotatable=0;labelPosition=right;points=[];portConstraint=eastwest;" parent="zkfFHV4jXpPFQw0GAbJ--13" vertex="1">
          <mxGeometry y="104" width="160" height="8" as="geometry" />
        </mxCell>
        <mxCell id="zkfFHV4jXpPFQw0GAbJ--17" value="DocDocumento" style="swimlane;fontStyle=0;align=center;verticalAlign=top;childLayout=stackLayout;horizontal=1;startSize=26;horizontalStack=0;resizeParent=1;resizeLast=0;collapsible=1;marginBottom=0;rounded=0;shadow=0;strokeWidth=1;" parent="WIyWlLk6GJQsqaUBKTNV-1" vertex="1">
          <mxGeometry x="-170" y="1110" width="242" height="230" as="geometry">
            <mxRectangle x="550" y="140" width="160" height="26" as="alternateBounds" />
          </mxGeometry>
        </mxCell>
        <mxCell id="zkfFHV4jXpPFQw0GAbJ--18" value="# id : int" style="text;align=left;verticalAlign=top;spacingLeft=4;spacingRight=4;overflow=hidden;rotatable=0;points=[[0,0.5],[1,0.5]];portConstraint=eastwest;" parent="zkfFHV4jXpPFQw0GAbJ--17" vertex="1">
          <mxGeometry y="26" width="242" height="26" as="geometry" />
        </mxCell>
        <mxCell id="zkfFHV4jXpPFQw0GAbJ--19" value="# doc_name: string" style="text;align=left;verticalAlign=top;spacingLeft=4;spacingRight=4;overflow=hidden;rotatable=0;points=[[0,0.5],[1,0.5]];portConstraint=eastwest;rounded=0;shadow=0;html=0;" parent="zkfFHV4jXpPFQw0GAbJ--17" vertex="1">
          <mxGeometry y="52" width="242" height="26" as="geometry" />
        </mxCell>
        <mxCell id="zkfFHV4jXpPFQw0GAbJ--20" value="# doc_code: int" style="text;align=left;verticalAlign=top;spacingLeft=4;spacingRight=4;overflow=hidden;rotatable=0;points=[[0,0.5],[1,0.5]];portConstraint=eastwest;rounded=0;shadow=0;html=0;" parent="zkfFHV4jXpPFQw0GAbJ--17" vertex="1">
          <mxGeometry y="78" width="242" height="26" as="geometry" />
        </mxCell>
        <mxCell id="zkfFHV4jXpPFQw0GAbJ--21" value="# doc_content : string" style="text;align=left;verticalAlign=top;spacingLeft=4;spacingRight=4;overflow=hidden;rotatable=0;points=[[0,0.5],[1,0.5]];portConstraint=eastwest;rounded=0;shadow=0;html=0;" parent="zkfFHV4jXpPFQw0GAbJ--17" vertex="1">
          <mxGeometry y="104" width="242" height="26" as="geometry" />
        </mxCell>
        <mxCell id="_VrNb_PbdVtPy9m1OPbP-8" value="# doc_id_type: int" style="text;align=left;verticalAlign=top;spacingLeft=4;spacingRight=4;overflow=hidden;rotatable=0;points=[[0,0.5],[1,0.5]];portConstraint=eastwest;rounded=0;shadow=0;html=0;" parent="zkfFHV4jXpPFQw0GAbJ--17" vertex="1">
          <mxGeometry y="130" width="242" height="26" as="geometry" />
        </mxCell>
        <mxCell id="zkfFHV4jXpPFQw0GAbJ--22" value="# doc_id_process: int" style="text;align=left;verticalAlign=top;spacingLeft=4;spacingRight=4;overflow=hidden;rotatable=0;points=[[0,0.5],[1,0.5]];portConstraint=eastwest;rounded=0;shadow=0;html=0;" parent="zkfFHV4jXpPFQw0GAbJ--17" vertex="1">
          <mxGeometry y="156" width="242" height="26" as="geometry" />
        </mxCell>
        <mxCell id="zkfFHV4jXpPFQw0GAbJ--23" value="" style="line;html=1;strokeWidth=1;align=left;verticalAlign=middle;spacingTop=-1;spacingLeft=3;spacingRight=3;rotatable=0;labelPosition=right;points=[];portConstraint=eastwest;" parent="zkfFHV4jXpPFQw0GAbJ--17" vertex="1">
          <mxGeometry y="182" width="242" height="8" as="geometry" />
        </mxCell>
        <mxCell id="_VrNb_PbdVtPy9m1OPbP-19" value="&lt;&lt; Interface &gt;&gt;&#xa;ProProcesoRepositoryInterface" style="swimlane;fontStyle=2;align=center;verticalAlign=top;childLayout=stackLayout;horizontal=1;startSize=50;horizontalStack=0;resizeParent=1;resizeLast=0;collapsible=1;marginBottom=0;rounded=0;shadow=0;strokeWidth=1;" parent="WIyWlLk6GJQsqaUBKTNV-1" vertex="1">
          <mxGeometry x="-20" y="640" width="260" height="154" as="geometry">
            <mxRectangle x="130" y="380" width="160" height="26" as="alternateBounds" />
          </mxGeometry>
        </mxCell>
        <mxCell id="-MCCmIzMc2nTo0CehHNH-2" value="+ getAll(): Array" style="text;align=left;verticalAlign=top;spacingLeft=4;spacingRight=4;overflow=hidden;rotatable=0;points=[[0,0.5],[1,0.5]];portConstraint=eastwest;rounded=0;shadow=0;html=0;" vertex="1" parent="_VrNb_PbdVtPy9m1OPbP-19">
          <mxGeometry y="50" width="260" height="26" as="geometry" />
        </mxCell>
        <mxCell id="_VrNb_PbdVtPy9m1OPbP-26" value="+ getById(id: int): ProProceso" style="text;align=left;verticalAlign=top;spacingLeft=4;spacingRight=4;overflow=hidden;rotatable=0;points=[[0,0.5],[1,0.5]];portConstraint=eastwest;rounded=0;shadow=0;html=0;" parent="_VrNb_PbdVtPy9m1OPbP-19" vertex="1">
          <mxGeometry y="76" width="260" height="26" as="geometry" />
        </mxCell>
        <mxCell id="_VrNb_PbdVtPy9m1OPbP-27" value="+ create(attributes: array): ProProceso" style="text;align=left;verticalAlign=top;spacingLeft=4;spacingRight=4;overflow=hidden;rotatable=0;points=[[0,0.5],[1,0.5]];portConstraint=eastwest;rounded=0;shadow=0;html=0;" parent="_VrNb_PbdVtPy9m1OPbP-19" vertex="1">
          <mxGeometry y="102" width="260" height="26" as="geometry" />
        </mxCell>
        <mxCell id="_VrNb_PbdVtPy9m1OPbP-28" value="+ update(id: int, attributes: array): ProProceso" style="text;align=left;verticalAlign=top;spacingLeft=4;spacingRight=4;overflow=hidden;rotatable=0;points=[[0,0.5],[1,0.5]];portConstraint=eastwest;rounded=0;shadow=0;html=0;" parent="_VrNb_PbdVtPy9m1OPbP-19" vertex="1">
          <mxGeometry y="128" width="260" height="26" as="geometry" />
        </mxCell>
        <mxCell id="_VrNb_PbdVtPy9m1OPbP-30" value="&lt;&lt; Interface &gt;&gt;&#xa;DocDocumentoRepositoryInterface" style="swimlane;fontStyle=2;align=center;verticalAlign=top;childLayout=stackLayout;horizontal=1;startSize=50;horizontalStack=0;resizeParent=1;resizeLast=0;collapsible=1;marginBottom=0;rounded=0;shadow=0;strokeWidth=1;" parent="WIyWlLk6GJQsqaUBKTNV-1" vertex="1">
          <mxGeometry x="225" y="840" width="330" height="180" as="geometry">
            <mxRectangle x="130" y="380" width="160" height="26" as="alternateBounds" />
          </mxGeometry>
        </mxCell>
        <mxCell id="-MCCmIzMc2nTo0CehHNH-1" value="+ getAll(search: string): Array" style="text;align=left;verticalAlign=top;spacingLeft=4;spacingRight=4;overflow=hidden;rotatable=0;points=[[0,0.5],[1,0.5]];portConstraint=eastwest;rounded=0;shadow=0;html=0;" vertex="1" parent="_VrNb_PbdVtPy9m1OPbP-30">
          <mxGeometry y="50" width="330" height="26" as="geometry" />
        </mxCell>
        <mxCell id="_VrNb_PbdVtPy9m1OPbP-32" value="+ getById(id: int): DocDocumento" style="text;align=left;verticalAlign=top;spacingLeft=4;spacingRight=4;overflow=hidden;rotatable=0;points=[[0,0.5],[1,0.5]];portConstraint=eastwest;rounded=0;shadow=0;html=0;" parent="_VrNb_PbdVtPy9m1OPbP-30" vertex="1">
          <mxGeometry y="76" width="330" height="26" as="geometry" />
        </mxCell>
        <mxCell id="_VrNb_PbdVtPy9m1OPbP-33" value="+ create(attributes: array): DocDocumento" style="text;align=left;verticalAlign=top;spacingLeft=4;spacingRight=4;overflow=hidden;rotatable=0;points=[[0,0.5],[1,0.5]];portConstraint=eastwest;rounded=0;shadow=0;html=0;" parent="_VrNb_PbdVtPy9m1OPbP-30" vertex="1">
          <mxGeometry y="102" width="330" height="26" as="geometry" />
        </mxCell>
        <mxCell id="_VrNb_PbdVtPy9m1OPbP-34" value="+ update(id: int, attributes: array): DocDocumento" style="text;align=left;verticalAlign=top;spacingLeft=4;spacingRight=4;overflow=hidden;rotatable=0;points=[[0,0.5],[1,0.5]];portConstraint=eastwest;rounded=0;shadow=0;html=0;" parent="_VrNb_PbdVtPy9m1OPbP-30" vertex="1">
          <mxGeometry y="128" width="330" height="26" as="geometry" />
        </mxCell>
        <mxCell id="-MCCmIzMc2nTo0CehHNH-4" value="+ loadDoc(documento: DocDocumento): DocDocumento" style="text;align=left;verticalAlign=top;spacingLeft=4;spacingRight=4;overflow=hidden;rotatable=0;points=[[0,0.5],[1,0.5]];portConstraint=eastwest;rounded=0;shadow=0;html=0;" vertex="1" parent="_VrNb_PbdVtPy9m1OPbP-30">
          <mxGeometry y="154" width="330" height="26" as="geometry" />
        </mxCell>
        <mxCell id="_VrNb_PbdVtPy9m1OPbP-36" value="&lt;&lt; Interface &gt;&gt;&#xa;DocumentoInterface" style="swimlane;fontStyle=2;align=center;verticalAlign=top;childLayout=stackLayout;horizontal=1;startSize=50;horizontalStack=0;resizeParent=1;resizeLast=0;collapsible=1;marginBottom=0;rounded=0;shadow=0;strokeWidth=1;" parent="WIyWlLk6GJQsqaUBKTNV-1" vertex="1">
          <mxGeometry x="260" y="460" width="260" height="102" as="geometry">
            <mxRectangle x="130" y="380" width="160" height="26" as="alternateBounds" />
          </mxGeometry>
        </mxCell>
        <mxCell id="_VrNb_PbdVtPy9m1OPbP-44" value="+ delete(id: int)" style="text;align=left;verticalAlign=top;spacingLeft=4;spacingRight=4;overflow=hidden;rotatable=0;points=[[0,0.5],[1,0.5]];portConstraint=eastwest;rounded=0;shadow=0;html=0;" parent="_VrNb_PbdVtPy9m1OPbP-36" vertex="1">
          <mxGeometry y="50" width="260" height="26" as="geometry" />
        </mxCell>
        <mxCell id="_VrNb_PbdVtPy9m1OPbP-45" value="&lt;&lt; Interface &gt;&gt;&#xa;TipTipoDocRepositoryInterface" style="swimlane;fontStyle=2;align=center;verticalAlign=top;childLayout=stackLayout;horizontal=1;startSize=50;horizontalStack=0;resizeParent=1;resizeLast=0;collapsible=1;marginBottom=0;rounded=0;shadow=0;strokeWidth=1;" parent="WIyWlLk6GJQsqaUBKTNV-1" vertex="1">
          <mxGeometry x="560" y="640" width="260" height="154" as="geometry">
            <mxRectangle x="130" y="380" width="160" height="26" as="alternateBounds" />
          </mxGeometry>
        </mxCell>
        <mxCell id="-MCCmIzMc2nTo0CehHNH-3" value="+ getAll(): Array" style="text;align=left;verticalAlign=top;spacingLeft=4;spacingRight=4;overflow=hidden;rotatable=0;points=[[0,0.5],[1,0.5]];portConstraint=eastwest;rounded=0;shadow=0;html=0;" vertex="1" parent="_VrNb_PbdVtPy9m1OPbP-45">
          <mxGeometry y="50" width="260" height="26" as="geometry" />
        </mxCell>
        <mxCell id="_VrNb_PbdVtPy9m1OPbP-46" value="+ getById(id: int): TipTipoDoc" style="text;align=left;verticalAlign=top;spacingLeft=4;spacingRight=4;overflow=hidden;rotatable=0;points=[[0,0.5],[1,0.5]];portConstraint=eastwest;rounded=0;shadow=0;html=0;" parent="_VrNb_PbdVtPy9m1OPbP-45" vertex="1">
          <mxGeometry y="76" width="260" height="26" as="geometry" />
        </mxCell>
        <mxCell id="_VrNb_PbdVtPy9m1OPbP-47" value="+ create(attributes: array): TipTipoDoc" style="text;align=left;verticalAlign=top;spacingLeft=4;spacingRight=4;overflow=hidden;rotatable=0;points=[[0,0.5],[1,0.5]];portConstraint=eastwest;rounded=0;shadow=0;html=0;" parent="_VrNb_PbdVtPy9m1OPbP-45" vertex="1">
          <mxGeometry y="102" width="260" height="26" as="geometry" />
        </mxCell>
        <mxCell id="_VrNb_PbdVtPy9m1OPbP-48" value="+ update(id: int, attributes: array): TipTipoDoc" style="text;align=left;verticalAlign=top;spacingLeft=4;spacingRight=4;overflow=hidden;rotatable=0;points=[[0,0.5],[1,0.5]];portConstraint=eastwest;rounded=0;shadow=0;html=0;" parent="_VrNb_PbdVtPy9m1OPbP-45" vertex="1">
          <mxGeometry y="128" width="260" height="26" as="geometry" />
        </mxCell>
        <mxCell id="_VrNb_PbdVtPy9m1OPbP-49" value="ProProcesoRepository" style="swimlane;fontStyle=0;align=center;verticalAlign=top;childLayout=stackLayout;horizontal=1;startSize=26;horizontalStack=0;resizeParent=1;resizeLast=0;collapsible=1;marginBottom=0;rounded=0;shadow=0;strokeWidth=1;" parent="WIyWlLk6GJQsqaUBKTNV-1" vertex="1">
          <mxGeometry x="-320" y="710" width="160" height="90" as="geometry">
            <mxRectangle x="340" y="380" width="170" height="26" as="alternateBounds" />
          </mxGeometry>
        </mxCell>
        <mxCell id="_VrNb_PbdVtPy9m1OPbP-54" value="Extends" style="endArrow=block;endSize=16;endFill=0;html=1;rounded=0;exitX=0.75;exitY=0;exitDx=0;exitDy=0;" parent="WIyWlLk6GJQsqaUBKTNV-1" source="_VrNb_PbdVtPy9m1OPbP-19" edge="1">
          <mxGeometry x="-0.4164" y="17" width="160" relative="1" as="geometry">
            <mxPoint x="690" y="690" as="sourcePoint" />
            <mxPoint x="370" y="560" as="targetPoint" />
            <Array as="points">
              <mxPoint x="370" y="640" />
            </Array>
            <mxPoint as="offset" />
          </mxGeometry>
        </mxCell>
        <mxCell id="_VrNb_PbdVtPy9m1OPbP-55" value="Extends" style="endArrow=block;endSize=16;endFill=0;html=1;rounded=0;exitX=0.5;exitY=0;exitDx=0;exitDy=0;entryX=0.5;entryY=1;entryDx=0;entryDy=0;" parent="WIyWlLk6GJQsqaUBKTNV-1" source="_VrNb_PbdVtPy9m1OPbP-30" target="_VrNb_PbdVtPy9m1OPbP-36" edge="1">
          <mxGeometry x="-0.4459" y="-17" width="160" relative="1" as="geometry">
            <mxPoint x="285" y="630" as="sourcePoint" />
            <mxPoint x="368" y="574" as="targetPoint" />
            <mxPoint as="offset" />
          </mxGeometry>
        </mxCell>
        <mxCell id="_VrNb_PbdVtPy9m1OPbP-56" value="Extends" style="endArrow=block;endSize=16;endFill=0;html=1;rounded=0;exitX=0.387;exitY=0.003;exitDx=0;exitDy=0;exitPerimeter=0;" parent="WIyWlLk6GJQsqaUBKTNV-1" source="_VrNb_PbdVtPy9m1OPbP-45" edge="1">
          <mxGeometry x="-0.4459" y="-17" width="160" relative="1" as="geometry">
            <mxPoint x="761" y="620" as="sourcePoint" />
            <mxPoint x="410" y="560" as="targetPoint" />
            <mxPoint as="offset" />
            <Array as="points">
              <mxPoint x="410" y="640" />
            </Array>
          </mxGeometry>
        </mxCell>
        <mxCell id="_VrNb_PbdVtPy9m1OPbP-57" value="TipTipoDocRepository" style="swimlane;fontStyle=0;align=center;verticalAlign=top;childLayout=stackLayout;horizontal=1;startSize=26;horizontalStack=0;resizeParent=1;resizeLast=0;collapsible=1;marginBottom=0;rounded=0;shadow=0;strokeWidth=1;" parent="WIyWlLk6GJQsqaUBKTNV-1" vertex="1">
          <mxGeometry x="840" y="970" width="160" height="90" as="geometry">
            <mxRectangle x="340" y="380" width="170" height="26" as="alternateBounds" />
          </mxGeometry>
        </mxCell>
        <mxCell id="_VrNb_PbdVtPy9m1OPbP-60" value="DocDocumentoRepository" style="swimlane;fontStyle=0;align=center;verticalAlign=top;childLayout=stackLayout;horizontal=1;startSize=26;horizontalStack=0;resizeParent=1;resizeLast=0;collapsible=1;marginBottom=0;rounded=0;shadow=0;strokeWidth=1;" parent="WIyWlLk6GJQsqaUBKTNV-1" vertex="1">
          <mxGeometry x="210" y="1110" width="200" height="90" as="geometry">
            <mxRectangle x="340" y="380" width="170" height="26" as="alternateBounds" />
          </mxGeometry>
        </mxCell>
        <mxCell id="_VrNb_PbdVtPy9m1OPbP-63" value="" style="endArrow=block;dashed=1;endFill=0;endSize=12;html=1;rounded=0;entryX=0;entryY=0.5;entryDx=0;entryDy=0;exitX=1;exitY=0.5;exitDx=0;exitDy=0;" parent="WIyWlLk6GJQsqaUBKTNV-1" target="_VrNb_PbdVtPy9m1OPbP-27" edge="1">
          <mxGeometry width="160" relative="1" as="geometry">
            <mxPoint x="-160" y="749" as="sourcePoint" />
            <mxPoint x="340" y="850" as="targetPoint" />
            <Array as="points" />
          </mxGeometry>
        </mxCell>
        <mxCell id="_VrNb_PbdVtPy9m1OPbP-64" value="" style="endArrow=block;dashed=1;endFill=0;endSize=12;html=1;rounded=0;exitX=0.5;exitY=0;exitDx=0;exitDy=0;entryX=0.25;entryY=1;entryDx=0;entryDy=0;" parent="WIyWlLk6GJQsqaUBKTNV-1" source="_VrNb_PbdVtPy9m1OPbP-60" target="_VrNb_PbdVtPy9m1OPbP-30" edge="1">
          <mxGeometry width="160" relative="1" as="geometry">
            <mxPoint x="380" y="950" as="sourcePoint" />
            <mxPoint x="380" y="980" as="targetPoint" />
          </mxGeometry>
        </mxCell>
        <mxCell id="_VrNb_PbdVtPy9m1OPbP-65" value="" style="endArrow=block;dashed=1;endFill=0;endSize=12;html=1;rounded=0;exitX=0.5;exitY=0;exitDx=0;exitDy=0;entryX=0.75;entryY=1;entryDx=0;entryDy=0;" parent="WIyWlLk6GJQsqaUBKTNV-1" source="_VrNb_PbdVtPy9m1OPbP-57" target="_VrNb_PbdVtPy9m1OPbP-45" edge="1">
          <mxGeometry width="160" relative="1" as="geometry">
            <mxPoint x="680" y="950" as="sourcePoint" />
            <mxPoint x="680" y="840" as="targetPoint" />
            <Array as="points">
              <mxPoint x="920" y="840" />
              <mxPoint x="755" y="840" />
            </Array>
          </mxGeometry>
        </mxCell>
        <mxCell id="_VrNb_PbdVtPy9m1OPbP-66" value="ProProcesoService" style="swimlane;fontStyle=0;align=center;verticalAlign=top;childLayout=stackLayout;horizontal=1;startSize=26;horizontalStack=0;resizeParent=1;resizeLast=0;collapsible=1;marginBottom=0;rounded=0;shadow=0;strokeWidth=1;" parent="WIyWlLk6GJQsqaUBKTNV-1" vertex="1">
          <mxGeometry x="-570" y="1130" width="330" height="190" as="geometry">
            <mxRectangle x="340" y="380" width="170" height="26" as="alternateBounds" />
          </mxGeometry>
        </mxCell>
        <mxCell id="_VrNb_PbdVtPy9m1OPbP-67" value="# pro_proceso_repository: ProProcesoRepositoryInterface" style="text;align=left;verticalAlign=top;spacingLeft=4;spacingRight=4;overflow=hidden;rotatable=0;points=[[0,0.5],[1,0.5]];portConstraint=eastwest;" parent="_VrNb_PbdVtPy9m1OPbP-66" vertex="1">
          <mxGeometry y="26" width="330" height="26" as="geometry" />
        </mxCell>
        <mxCell id="_VrNb_PbdVtPy9m1OPbP-68" value="" style="line;html=1;strokeWidth=1;align=left;verticalAlign=middle;spacingTop=-1;spacingLeft=3;spacingRight=3;rotatable=0;labelPosition=right;points=[];portConstraint=eastwest;" parent="_VrNb_PbdVtPy9m1OPbP-66" vertex="1">
          <mxGeometry y="52" width="330" height="8" as="geometry" />
        </mxCell>
        <mxCell id="_VrNb_PbdVtPy9m1OPbP-70" value="+ getAllProceso(): Array" style="text;align=left;verticalAlign=top;spacingLeft=4;spacingRight=4;overflow=hidden;rotatable=0;points=[[0,0.5],[1,0.5]];portConstraint=eastwest;rounded=0;shadow=0;html=0;" parent="_VrNb_PbdVtPy9m1OPbP-66" vertex="1">
          <mxGeometry y="60" width="330" height="26" as="geometry" />
        </mxCell>
        <mxCell id="_VrNb_PbdVtPy9m1OPbP-74" value="+ getProcesoById(id: int): ProProceso" style="text;align=left;verticalAlign=top;spacingLeft=4;spacingRight=4;overflow=hidden;rotatable=0;points=[[0,0.5],[1,0.5]];portConstraint=eastwest;rounded=0;shadow=0;html=0;" parent="_VrNb_PbdVtPy9m1OPbP-66" vertex="1">
          <mxGeometry y="86" width="330" height="26" as="geometry" />
        </mxCell>
        <mxCell id="_VrNb_PbdVtPy9m1OPbP-71" value="+ createProceso(proceso: Array): ProProceso" style="text;align=left;verticalAlign=top;spacingLeft=4;spacingRight=4;overflow=hidden;rotatable=0;points=[[0,0.5],[1,0.5]];portConstraint=eastwest;rounded=0;shadow=0;html=0;" parent="_VrNb_PbdVtPy9m1OPbP-66" vertex="1">
          <mxGeometry y="112" width="330" height="26" as="geometry" />
        </mxCell>
        <mxCell id="_VrNb_PbdVtPy9m1OPbP-75" value="+ updateProceso(id: int, proceso: Array): ProProceso" style="text;align=left;verticalAlign=top;spacingLeft=4;spacingRight=4;overflow=hidden;rotatable=0;points=[[0,0.5],[1,0.5]];portConstraint=eastwest;rounded=0;shadow=0;html=0;" parent="_VrNb_PbdVtPy9m1OPbP-66" vertex="1">
          <mxGeometry y="138" width="330" height="26" as="geometry" />
        </mxCell>
        <mxCell id="_VrNb_PbdVtPy9m1OPbP-76" value="+ deleteProceso(id: int)" style="text;align=left;verticalAlign=top;spacingLeft=4;spacingRight=4;overflow=hidden;rotatable=0;points=[[0,0.5],[1,0.5]];portConstraint=eastwest;rounded=0;shadow=0;html=0;" parent="_VrNb_PbdVtPy9m1OPbP-66" vertex="1">
          <mxGeometry y="164" width="330" height="26" as="geometry" />
        </mxCell>
        <mxCell id="_VrNb_PbdVtPy9m1OPbP-77" value="TipTipoDocService" style="swimlane;fontStyle=0;align=center;verticalAlign=top;childLayout=stackLayout;horizontal=1;startSize=26;horizontalStack=0;resizeParent=1;resizeLast=0;collapsible=1;marginBottom=0;rounded=0;shadow=0;strokeWidth=1;" parent="WIyWlLk6GJQsqaUBKTNV-1" vertex="1">
          <mxGeometry x="950" y="1090" width="330" height="190" as="geometry">
            <mxRectangle x="340" y="380" width="170" height="26" as="alternateBounds" />
          </mxGeometry>
        </mxCell>
        <mxCell id="_VrNb_PbdVtPy9m1OPbP-78" value="# tip_tipo_doc_repository: TipTipoDocRepositoryInterface" style="text;align=left;verticalAlign=top;spacingLeft=4;spacingRight=4;overflow=hidden;rotatable=0;points=[[0,0.5],[1,0.5]];portConstraint=eastwest;" parent="_VrNb_PbdVtPy9m1OPbP-77" vertex="1">
          <mxGeometry y="26" width="330" height="26" as="geometry" />
        </mxCell>
        <mxCell id="_VrNb_PbdVtPy9m1OPbP-79" value="" style="line;html=1;strokeWidth=1;align=left;verticalAlign=middle;spacingTop=-1;spacingLeft=3;spacingRight=3;rotatable=0;labelPosition=right;points=[];portConstraint=eastwest;" parent="_VrNb_PbdVtPy9m1OPbP-77" vertex="1">
          <mxGeometry y="52" width="330" height="8" as="geometry" />
        </mxCell>
        <mxCell id="_VrNb_PbdVtPy9m1OPbP-80" value="+ getAllTipTiposDoc(): Array" style="text;align=left;verticalAlign=top;spacingLeft=4;spacingRight=4;overflow=hidden;rotatable=0;points=[[0,0.5],[1,0.5]];portConstraint=eastwest;rounded=0;shadow=0;html=0;" parent="_VrNb_PbdVtPy9m1OPbP-77" vertex="1">
          <mxGeometry y="60" width="330" height="26" as="geometry" />
        </mxCell>
        <mxCell id="_VrNb_PbdVtPy9m1OPbP-81" value="+ getTipTipoDocById(id: int): TipTipoDoc" style="text;align=left;verticalAlign=top;spacingLeft=4;spacingRight=4;overflow=hidden;rotatable=0;points=[[0,0.5],[1,0.5]];portConstraint=eastwest;rounded=0;shadow=0;html=0;" parent="_VrNb_PbdVtPy9m1OPbP-77" vertex="1">
          <mxGeometry y="86" width="330" height="26" as="geometry" />
        </mxCell>
        <mxCell id="_VrNb_PbdVtPy9m1OPbP-82" value="+ createTipTipoDoc(tipTipoDoc: Array): TipTipoDoc" style="text;align=left;verticalAlign=top;spacingLeft=4;spacingRight=4;overflow=hidden;rotatable=0;points=[[0,0.5],[1,0.5]];portConstraint=eastwest;rounded=0;shadow=0;html=0;" parent="_VrNb_PbdVtPy9m1OPbP-77" vertex="1">
          <mxGeometry y="112" width="330" height="26" as="geometry" />
        </mxCell>
        <mxCell id="_VrNb_PbdVtPy9m1OPbP-83" value="+ updateTipTipoDoc(id: int, tipTipoDoc: Array): TipTipoDoc" style="text;align=left;verticalAlign=top;spacingLeft=4;spacingRight=4;overflow=hidden;rotatable=0;points=[[0,0.5],[1,0.5]];portConstraint=eastwest;rounded=0;shadow=0;html=0;" parent="_VrNb_PbdVtPy9m1OPbP-77" vertex="1">
          <mxGeometry y="138" width="330" height="26" as="geometry" />
        </mxCell>
        <mxCell id="_VrNb_PbdVtPy9m1OPbP-84" value="+ deleteTipTipoDoc(id: int)" style="text;align=left;verticalAlign=top;spacingLeft=4;spacingRight=4;overflow=hidden;rotatable=0;points=[[0,0.5],[1,0.5]];portConstraint=eastwest;rounded=0;shadow=0;html=0;" parent="_VrNb_PbdVtPy9m1OPbP-77" vertex="1">
          <mxGeometry y="164" width="330" height="26" as="geometry" />
        </mxCell>
        <mxCell id="_VrNb_PbdVtPy9m1OPbP-85" value="DocDocumentoService" style="swimlane;fontStyle=0;align=center;verticalAlign=top;childLayout=stackLayout;horizontal=1;startSize=26;horizontalStack=0;resizeParent=1;resizeLast=0;collapsible=1;marginBottom=0;rounded=0;shadow=0;strokeWidth=1;" parent="WIyWlLk6GJQsqaUBKTNV-1" vertex="1">
          <mxGeometry x="390" y="1230" width="370" height="190" as="geometry">
            <mxRectangle x="340" y="380" width="170" height="26" as="alternateBounds" />
          </mxGeometry>
        </mxCell>
        <mxCell id="_VrNb_PbdVtPy9m1OPbP-86" value="# doc_documento_repository: DocDocumentoRepositoryInterface" style="text;align=left;verticalAlign=top;spacingLeft=4;spacingRight=4;overflow=hidden;rotatable=0;points=[[0,0.5],[1,0.5]];portConstraint=eastwest;" parent="_VrNb_PbdVtPy9m1OPbP-85" vertex="1">
          <mxGeometry y="26" width="370" height="26" as="geometry" />
        </mxCell>
        <mxCell id="_VrNb_PbdVtPy9m1OPbP-87" value="" style="line;html=1;strokeWidth=1;align=left;verticalAlign=middle;spacingTop=-1;spacingLeft=3;spacingRight=3;rotatable=0;labelPosition=right;points=[];portConstraint=eastwest;" parent="_VrNb_PbdVtPy9m1OPbP-85" vertex="1">
          <mxGeometry y="52" width="370" height="8" as="geometry" />
        </mxCell>
        <mxCell id="_VrNb_PbdVtPy9m1OPbP-88" value="+ getAllDocumentos(): Array" style="text;align=left;verticalAlign=top;spacingLeft=4;spacingRight=4;overflow=hidden;rotatable=0;points=[[0,0.5],[1,0.5]];portConstraint=eastwest;rounded=0;shadow=0;html=0;" parent="_VrNb_PbdVtPy9m1OPbP-85" vertex="1">
          <mxGeometry y="60" width="370" height="26" as="geometry" />
        </mxCell>
        <mxCell id="_VrNb_PbdVtPy9m1OPbP-89" value="+ getDocumentoById(id: int): DocDocumento" style="text;align=left;verticalAlign=top;spacingLeft=4;spacingRight=4;overflow=hidden;rotatable=0;points=[[0,0.5],[1,0.5]];portConstraint=eastwest;rounded=0;shadow=0;html=0;" parent="_VrNb_PbdVtPy9m1OPbP-85" vertex="1">
          <mxGeometry y="86" width="370" height="26" as="geometry" />
        </mxCell>
        <mxCell id="_VrNb_PbdVtPy9m1OPbP-90" value="+ createDocumento(docDocumento: Array): DocDocumento" style="text;align=left;verticalAlign=top;spacingLeft=4;spacingRight=4;overflow=hidden;rotatable=0;points=[[0,0.5],[1,0.5]];portConstraint=eastwest;rounded=0;shadow=0;html=0;" parent="_VrNb_PbdVtPy9m1OPbP-85" vertex="1">
          <mxGeometry y="112" width="370" height="26" as="geometry" />
        </mxCell>
        <mxCell id="_VrNb_PbdVtPy9m1OPbP-91" value="+ updateDocumento(id: int, docDocumento: Array): DocDocumento" style="text;align=left;verticalAlign=top;spacingLeft=4;spacingRight=4;overflow=hidden;rotatable=0;points=[[0,0.5],[1,0.5]];portConstraint=eastwest;rounded=0;shadow=0;html=0;" parent="_VrNb_PbdVtPy9m1OPbP-85" vertex="1">
          <mxGeometry y="138" width="370" height="26" as="geometry" />
        </mxCell>
        <mxCell id="_VrNb_PbdVtPy9m1OPbP-92" value="+ deleteDocumento(id: int)" style="text;align=left;verticalAlign=top;spacingLeft=4;spacingRight=4;overflow=hidden;rotatable=0;points=[[0,0.5],[1,0.5]];portConstraint=eastwest;rounded=0;shadow=0;html=0;" parent="_VrNb_PbdVtPy9m1OPbP-85" vertex="1">
          <mxGeometry y="164" width="370" height="26" as="geometry" />
        </mxCell>
        <mxCell id="_VrNb_PbdVtPy9m1OPbP-93" value="ProProcesoController" style="swimlane;fontStyle=0;align=center;verticalAlign=top;childLayout=stackLayout;horizontal=1;startSize=26;horizontalStack=0;resizeParent=1;resizeLast=0;collapsible=1;marginBottom=0;rounded=0;shadow=0;strokeWidth=1;" parent="WIyWlLk6GJQsqaUBKTNV-1" vertex="1">
          <mxGeometry x="-570" y="1440" width="330" height="190" as="geometry">
            <mxRectangle x="340" y="380" width="170" height="26" as="alternateBounds" />
          </mxGeometry>
        </mxCell>
        <mxCell id="_VrNb_PbdVtPy9m1OPbP-94" value="# pro_proceso_service: ProProcesoService" style="text;align=left;verticalAlign=top;spacingLeft=4;spacingRight=4;overflow=hidden;rotatable=0;points=[[0,0.5],[1,0.5]];portConstraint=eastwest;" parent="_VrNb_PbdVtPy9m1OPbP-93" vertex="1">
          <mxGeometry y="26" width="330" height="26" as="geometry" />
        </mxCell>
        <mxCell id="_VrNb_PbdVtPy9m1OPbP-95" value="" style="line;html=1;strokeWidth=1;align=left;verticalAlign=middle;spacingTop=-1;spacingLeft=3;spacingRight=3;rotatable=0;labelPosition=right;points=[];portConstraint=eastwest;" parent="_VrNb_PbdVtPy9m1OPbP-93" vertex="1">
          <mxGeometry y="52" width="330" height="8" as="geometry" />
        </mxCell>
        <mxCell id="_VrNb_PbdVtPy9m1OPbP-96" value="+ index()" style="text;align=left;verticalAlign=top;spacingLeft=4;spacingRight=4;overflow=hidden;rotatable=0;points=[[0,0.5],[1,0.5]];portConstraint=eastwest;rounded=0;shadow=0;html=0;" parent="_VrNb_PbdVtPy9m1OPbP-93" vertex="1">
          <mxGeometry y="60" width="330" height="26" as="geometry" />
        </mxCell>
        <mxCell id="_VrNb_PbdVtPy9m1OPbP-97" value="+ store(request: Request)" style="text;align=left;verticalAlign=top;spacingLeft=4;spacingRight=4;overflow=hidden;rotatable=0;points=[[0,0.5],[1,0.5]];portConstraint=eastwest;rounded=0;shadow=0;html=0;" parent="_VrNb_PbdVtPy9m1OPbP-93" vertex="1">
          <mxGeometry y="86" width="330" height="26" as="geometry" />
        </mxCell>
        <mxCell id="_VrNb_PbdVtPy9m1OPbP-98" value="+ show(id: int)" style="text;align=left;verticalAlign=top;spacingLeft=4;spacingRight=4;overflow=hidden;rotatable=0;points=[[0,0.5],[1,0.5]];portConstraint=eastwest;rounded=0;shadow=0;html=0;" parent="_VrNb_PbdVtPy9m1OPbP-93" vertex="1">
          <mxGeometry y="112" width="330" height="26" as="geometry" />
        </mxCell>
        <mxCell id="_VrNb_PbdVtPy9m1OPbP-99" value="+ update(request: Request, id: int)" style="text;align=left;verticalAlign=top;spacingLeft=4;spacingRight=4;overflow=hidden;rotatable=0;points=[[0,0.5],[1,0.5]];portConstraint=eastwest;rounded=0;shadow=0;html=0;" parent="_VrNb_PbdVtPy9m1OPbP-93" vertex="1">
          <mxGeometry y="138" width="330" height="26" as="geometry" />
        </mxCell>
        <mxCell id="_VrNb_PbdVtPy9m1OPbP-100" value="+ destroy(id: int)" style="text;align=left;verticalAlign=top;spacingLeft=4;spacingRight=4;overflow=hidden;rotatable=0;points=[[0,0.5],[1,0.5]];portConstraint=eastwest;rounded=0;shadow=0;html=0;" parent="_VrNb_PbdVtPy9m1OPbP-93" vertex="1">
          <mxGeometry y="164" width="330" height="26" as="geometry" />
        </mxCell>
        <mxCell id="_VrNb_PbdVtPy9m1OPbP-101" value="DocDocumentoController" style="swimlane;fontStyle=0;align=center;verticalAlign=top;childLayout=stackLayout;horizontal=1;startSize=26;horizontalStack=0;resizeParent=1;resizeLast=0;collapsible=1;marginBottom=0;rounded=0;shadow=0;strokeWidth=1;" parent="WIyWlLk6GJQsqaUBKTNV-1" vertex="1">
          <mxGeometry x="410" y="1540" width="330" height="242" as="geometry">
            <mxRectangle x="340" y="380" width="170" height="26" as="alternateBounds" />
          </mxGeometry>
        </mxCell>
        <mxCell id="_VrNb_PbdVtPy9m1OPbP-102" value="# doc_documento_service: DocDocumentoService" style="text;align=left;verticalAlign=top;spacingLeft=4;spacingRight=4;overflow=hidden;rotatable=0;points=[[0,0.5],[1,0.5]];portConstraint=eastwest;" parent="_VrNb_PbdVtPy9m1OPbP-101" vertex="1">
          <mxGeometry y="26" width="330" height="26" as="geometry" />
        </mxCell>
        <mxCell id="-MCCmIzMc2nTo0CehHNH-6" value="# tip_tipo_doc_service: TipTipoDocService" style="text;align=left;verticalAlign=top;spacingLeft=4;spacingRight=4;overflow=hidden;rotatable=0;points=[[0,0.5],[1,0.5]];portConstraint=eastwest;" vertex="1" parent="_VrNb_PbdVtPy9m1OPbP-101">
          <mxGeometry y="52" width="330" height="26" as="geometry" />
        </mxCell>
        <mxCell id="-MCCmIzMc2nTo0CehHNH-5" value="# pro_proceso_service: ProProcesoService" style="text;align=left;verticalAlign=top;spacingLeft=4;spacingRight=4;overflow=hidden;rotatable=0;points=[[0,0.5],[1,0.5]];portConstraint=eastwest;" vertex="1" parent="_VrNb_PbdVtPy9m1OPbP-101">
          <mxGeometry y="78" width="330" height="26" as="geometry" />
        </mxCell>
        <mxCell id="_VrNb_PbdVtPy9m1OPbP-103" value="" style="line;html=1;strokeWidth=1;align=left;verticalAlign=middle;spacingTop=-1;spacingLeft=3;spacingRight=3;rotatable=0;labelPosition=right;points=[];portConstraint=eastwest;" parent="_VrNb_PbdVtPy9m1OPbP-101" vertex="1">
          <mxGeometry y="104" width="330" height="8" as="geometry" />
        </mxCell>
        <mxCell id="_VrNb_PbdVtPy9m1OPbP-104" value="+ index()" style="text;align=left;verticalAlign=top;spacingLeft=4;spacingRight=4;overflow=hidden;rotatable=0;points=[[0,0.5],[1,0.5]];portConstraint=eastwest;rounded=0;shadow=0;html=0;" parent="_VrNb_PbdVtPy9m1OPbP-101" vertex="1">
          <mxGeometry y="112" width="330" height="26" as="geometry" />
        </mxCell>
        <mxCell id="_VrNb_PbdVtPy9m1OPbP-105" value="+ store(request: Request)" style="text;align=left;verticalAlign=top;spacingLeft=4;spacingRight=4;overflow=hidden;rotatable=0;points=[[0,0.5],[1,0.5]];portConstraint=eastwest;rounded=0;shadow=0;html=0;" parent="_VrNb_PbdVtPy9m1OPbP-101" vertex="1">
          <mxGeometry y="138" width="330" height="26" as="geometry" />
        </mxCell>
        <mxCell id="_VrNb_PbdVtPy9m1OPbP-106" value="+ show(id: int)" style="text;align=left;verticalAlign=top;spacingLeft=4;spacingRight=4;overflow=hidden;rotatable=0;points=[[0,0.5],[1,0.5]];portConstraint=eastwest;rounded=0;shadow=0;html=0;" parent="_VrNb_PbdVtPy9m1OPbP-101" vertex="1">
          <mxGeometry y="164" width="330" height="26" as="geometry" />
        </mxCell>
        <mxCell id="_VrNb_PbdVtPy9m1OPbP-107" value="+ update(request: Request, id: int)" style="text;align=left;verticalAlign=top;spacingLeft=4;spacingRight=4;overflow=hidden;rotatable=0;points=[[0,0.5],[1,0.5]];portConstraint=eastwest;rounded=0;shadow=0;html=0;" parent="_VrNb_PbdVtPy9m1OPbP-101" vertex="1">
          <mxGeometry y="190" width="330" height="26" as="geometry" />
        </mxCell>
        <mxCell id="_VrNb_PbdVtPy9m1OPbP-108" value="+ destroy(id: int)" style="text;align=left;verticalAlign=top;spacingLeft=4;spacingRight=4;overflow=hidden;rotatable=0;points=[[0,0.5],[1,0.5]];portConstraint=eastwest;rounded=0;shadow=0;html=0;" parent="_VrNb_PbdVtPy9m1OPbP-101" vertex="1">
          <mxGeometry y="216" width="330" height="26" as="geometry" />
        </mxCell>
        <mxCell id="_VrNb_PbdVtPy9m1OPbP-109" value="TipTipoDocController" style="swimlane;fontStyle=0;align=center;verticalAlign=top;childLayout=stackLayout;horizontal=1;startSize=26;horizontalStack=0;resizeParent=1;resizeLast=0;collapsible=1;marginBottom=0;rounded=0;shadow=0;strokeWidth=1;" parent="WIyWlLk6GJQsqaUBKTNV-1" vertex="1">
          <mxGeometry x="950" y="1460" width="330" height="190" as="geometry">
            <mxRectangle x="340" y="380" width="170" height="26" as="alternateBounds" />
          </mxGeometry>
        </mxCell>
        <mxCell id="_VrNb_PbdVtPy9m1OPbP-110" value="# tip_tipo_doc_service: TipTipoDocService" style="text;align=left;verticalAlign=top;spacingLeft=4;spacingRight=4;overflow=hidden;rotatable=0;points=[[0,0.5],[1,0.5]];portConstraint=eastwest;" parent="_VrNb_PbdVtPy9m1OPbP-109" vertex="1">
          <mxGeometry y="26" width="330" height="26" as="geometry" />
        </mxCell>
        <mxCell id="_VrNb_PbdVtPy9m1OPbP-111" value="" style="line;html=1;strokeWidth=1;align=left;verticalAlign=middle;spacingTop=-1;spacingLeft=3;spacingRight=3;rotatable=0;labelPosition=right;points=[];portConstraint=eastwest;" parent="_VrNb_PbdVtPy9m1OPbP-109" vertex="1">
          <mxGeometry y="52" width="330" height="8" as="geometry" />
        </mxCell>
        <mxCell id="_VrNb_PbdVtPy9m1OPbP-112" value="+ index()" style="text;align=left;verticalAlign=top;spacingLeft=4;spacingRight=4;overflow=hidden;rotatable=0;points=[[0,0.5],[1,0.5]];portConstraint=eastwest;rounded=0;shadow=0;html=0;" parent="_VrNb_PbdVtPy9m1OPbP-109" vertex="1">
          <mxGeometry y="60" width="330" height="26" as="geometry" />
        </mxCell>
        <mxCell id="_VrNb_PbdVtPy9m1OPbP-113" value="+ store(request: Request)" style="text;align=left;verticalAlign=top;spacingLeft=4;spacingRight=4;overflow=hidden;rotatable=0;points=[[0,0.5],[1,0.5]];portConstraint=eastwest;rounded=0;shadow=0;html=0;" parent="_VrNb_PbdVtPy9m1OPbP-109" vertex="1">
          <mxGeometry y="86" width="330" height="26" as="geometry" />
        </mxCell>
        <mxCell id="_VrNb_PbdVtPy9m1OPbP-114" value="+ show(id: int)" style="text;align=left;verticalAlign=top;spacingLeft=4;spacingRight=4;overflow=hidden;rotatable=0;points=[[0,0.5],[1,0.5]];portConstraint=eastwest;rounded=0;shadow=0;html=0;" parent="_VrNb_PbdVtPy9m1OPbP-109" vertex="1">
          <mxGeometry y="112" width="330" height="26" as="geometry" />
        </mxCell>
        <mxCell id="_VrNb_PbdVtPy9m1OPbP-115" value="+ update(request: Request, id: int)" style="text;align=left;verticalAlign=top;spacingLeft=4;spacingRight=4;overflow=hidden;rotatable=0;points=[[0,0.5],[1,0.5]];portConstraint=eastwest;rounded=0;shadow=0;html=0;" parent="_VrNb_PbdVtPy9m1OPbP-109" vertex="1">
          <mxGeometry y="138" width="330" height="26" as="geometry" />
        </mxCell>
        <mxCell id="_VrNb_PbdVtPy9m1OPbP-116" value="+ destroy(id: int)" style="text;align=left;verticalAlign=top;spacingLeft=4;spacingRight=4;overflow=hidden;rotatable=0;points=[[0,0.5],[1,0.5]];portConstraint=eastwest;rounded=0;shadow=0;html=0;" parent="_VrNb_PbdVtPy9m1OPbP-109" vertex="1">
          <mxGeometry y="164" width="330" height="26" as="geometry" />
        </mxCell>
        <mxCell id="_VrNb_PbdVtPy9m1OPbP-123" value="1" style="text;html=1;align=center;verticalAlign=middle;whiteSpace=wrap;rounded=0;" parent="WIyWlLk6GJQsqaUBKTNV-1" vertex="1">
          <mxGeometry x="560" y="1440" width="40" height="30" as="geometry" />
        </mxCell>
        <mxCell id="_VrNb_PbdVtPy9m1OPbP-124" value="1" style="text;html=1;align=center;verticalAlign=middle;whiteSpace=wrap;rounded=0;" parent="WIyWlLk6GJQsqaUBKTNV-1" vertex="1">
          <mxGeometry x="560" y="1510" width="40" height="30" as="geometry" />
        </mxCell>
        <mxCell id="_VrNb_PbdVtPy9m1OPbP-127" value="" style="endArrow=open;endFill=1;endSize=12;html=1;rounded=0;exitX=0.5;exitY=0;exitDx=0;exitDy=0;" parent="WIyWlLk6GJQsqaUBKTNV-1" source="_VrNb_PbdVtPy9m1OPbP-93" target="_VrNb_PbdVtPy9m1OPbP-76" edge="1">
          <mxGeometry width="160" relative="1" as="geometry">
            <mxPoint x="300" y="1350" as="sourcePoint" />
            <mxPoint x="460" y="1350" as="targetPoint" />
            <Array as="points" />
          </mxGeometry>
        </mxCell>
        <mxCell id="_VrNb_PbdVtPy9m1OPbP-128" value="" style="endArrow=open;endFill=1;endSize=12;html=1;rounded=0;entryX=0.454;entryY=0.923;entryDx=0;entryDy=0;entryPerimeter=0;exitX=0.453;exitY=-0.015;exitDx=0;exitDy=0;exitPerimeter=0;" parent="WIyWlLk6GJQsqaUBKTNV-1" source="_VrNb_PbdVtPy9m1OPbP-101" target="_VrNb_PbdVtPy9m1OPbP-92" edge="1">
          <mxGeometry width="160" relative="1" as="geometry">
            <mxPoint x="548" y="1410" as="sourcePoint" />
            <mxPoint x="540" y="1320" as="targetPoint" />
          </mxGeometry>
        </mxCell>
        <mxCell id="_VrNb_PbdVtPy9m1OPbP-130" value="1" style="text;html=1;align=center;verticalAlign=middle;whiteSpace=wrap;rounded=0;" parent="WIyWlLk6GJQsqaUBKTNV-1" vertex="1">
          <mxGeometry x="-390" y="1330" width="40" height="30" as="geometry" />
        </mxCell>
        <mxCell id="_VrNb_PbdVtPy9m1OPbP-131" value="1" style="text;html=1;align=center;verticalAlign=middle;whiteSpace=wrap;rounded=0;" parent="WIyWlLk6GJQsqaUBKTNV-1" vertex="1">
          <mxGeometry x="-390" y="1410" width="40" height="30" as="geometry" />
        </mxCell>
        <mxCell id="_VrNb_PbdVtPy9m1OPbP-132" value="" style="endArrow=open;endFill=1;endSize=12;html=1;rounded=0;exitX=0.5;exitY=0;exitDx=0;exitDy=0;entryX=0.498;entryY=0.954;entryDx=0;entryDy=0;entryPerimeter=0;" parent="WIyWlLk6GJQsqaUBKTNV-1" source="_VrNb_PbdVtPy9m1OPbP-109" target="_VrNb_PbdVtPy9m1OPbP-84" edge="1">
          <mxGeometry width="160" relative="1" as="geometry">
            <mxPoint x="931" y="1420" as="sourcePoint" />
            <mxPoint x="930" y="1320" as="targetPoint" />
          </mxGeometry>
        </mxCell>
        <mxCell id="_VrNb_PbdVtPy9m1OPbP-133" value="1" style="text;html=1;align=center;verticalAlign=middle;whiteSpace=wrap;rounded=0;" parent="WIyWlLk6GJQsqaUBKTNV-1" vertex="1">
          <mxGeometry x="1120" y="1290" width="40" height="30" as="geometry" />
        </mxCell>
        <mxCell id="_VrNb_PbdVtPy9m1OPbP-134" value="1" style="text;html=1;align=center;verticalAlign=middle;whiteSpace=wrap;rounded=0;" parent="WIyWlLk6GJQsqaUBKTNV-1" vertex="1">
          <mxGeometry x="1120" y="1430" width="40" height="30" as="geometry" />
        </mxCell>
        <mxCell id="_VrNb_PbdVtPy9m1OPbP-140" value="" style="endArrow=open;endFill=1;endSize=12;html=1;rounded=0;exitX=0;exitY=0.5;exitDx=0;exitDy=0;entryX=1;entryY=0.5;entryDx=0;entryDy=0;" parent="WIyWlLk6GJQsqaUBKTNV-1" target="zkfFHV4jXpPFQw0GAbJ--18" edge="1">
          <mxGeometry width="160" relative="1" as="geometry">
            <mxPoint x="210" y="1149" as="sourcePoint" />
            <mxPoint x="210" y="1230" as="targetPoint" />
          </mxGeometry>
        </mxCell>
        <mxCell id="_VrNb_PbdVtPy9m1OPbP-141" value="1" style="text;html=1;align=center;verticalAlign=middle;whiteSpace=wrap;rounded=0;" parent="WIyWlLk6GJQsqaUBKTNV-1" vertex="1">
          <mxGeometry x="90" y="1110" width="40" height="30" as="geometry" />
        </mxCell>
        <mxCell id="_VrNb_PbdVtPy9m1OPbP-142" value="1" style="text;html=1;align=center;verticalAlign=middle;whiteSpace=wrap;rounded=0;" parent="WIyWlLk6GJQsqaUBKTNV-1" vertex="1">
          <mxGeometry x="190" y="1110" width="40" height="30" as="geometry" />
        </mxCell>
        <mxCell id="_VrNb_PbdVtPy9m1OPbP-144" value="" style="endArrow=open;endFill=1;endSize=12;html=1;rounded=0;exitX=0;exitY=0.5;exitDx=0;exitDy=0;entryX=1;entryY=0.5;entryDx=0;entryDy=0;" parent="WIyWlLk6GJQsqaUBKTNV-1" target="zkfFHV4jXpPFQw0GAbJ--7" edge="1">
          <mxGeometry width="160" relative="1" as="geometry">
            <mxPoint x="-320" y="749" as="sourcePoint" />
            <mxPoint x="-440" y="1000" as="targetPoint" />
          </mxGeometry>
        </mxCell>
        <mxCell id="_VrNb_PbdVtPy9m1OPbP-145" value="" style="endArrow=open;endFill=1;endSize=12;html=1;rounded=0;exitX=0;exitY=0.5;exitDx=0;exitDy=0;entryX=0.997;entryY=0.172;entryDx=0;entryDy=0;entryPerimeter=0;" parent="WIyWlLk6GJQsqaUBKTNV-1" target="_VrNb_PbdVtPy9m1OPbP-16" edge="1">
          <mxGeometry width="160" relative="1" as="geometry">
            <mxPoint x="840" y="1009" as="sourcePoint" />
            <mxPoint x="790" y="1110" as="targetPoint" />
          </mxGeometry>
        </mxCell>
        <mxCell id="_VrNb_PbdVtPy9m1OPbP-146" value="1" style="text;html=1;align=center;verticalAlign=middle;whiteSpace=wrap;rounded=0;" parent="WIyWlLk6GJQsqaUBKTNV-1" vertex="1">
          <mxGeometry x="740" y="970" width="40" height="30" as="geometry" />
        </mxCell>
        <mxCell id="_VrNb_PbdVtPy9m1OPbP-147" value="1" style="text;html=1;align=center;verticalAlign=middle;whiteSpace=wrap;rounded=0;" parent="WIyWlLk6GJQsqaUBKTNV-1" vertex="1">
          <mxGeometry x="800" y="970" width="40" height="30" as="geometry" />
        </mxCell>
        <mxCell id="_VrNb_PbdVtPy9m1OPbP-149" value="" style="endArrow=open;endFill=1;endSize=12;html=1;rounded=0;exitX=0.279;exitY=0.004;exitDx=0;exitDy=0;exitPerimeter=0;entryX=0.811;entryY=1.077;entryDx=0;entryDy=0;entryPerimeter=0;" parent="WIyWlLk6GJQsqaUBKTNV-1" source="_VrNb_PbdVtPy9m1OPbP-85" edge="1" target="-MCCmIzMc2nTo0CehHNH-4">
          <mxGeometry width="160" relative="1" as="geometry">
            <mxPoint x="430" y="1300" as="sourcePoint" />
            <mxPoint x="480" y="1020" as="targetPoint" />
          </mxGeometry>
        </mxCell>
        <mxCell id="_VrNb_PbdVtPy9m1OPbP-151" value="1" style="text;html=1;align=center;verticalAlign=middle;whiteSpace=wrap;rounded=0;" parent="WIyWlLk6GJQsqaUBKTNV-1" vertex="1">
          <mxGeometry x="-500" y="760" width="40" height="30" as="geometry" />
        </mxCell>
        <mxCell id="_VrNb_PbdVtPy9m1OPbP-152" value="1" style="text;html=1;align=center;verticalAlign=middle;whiteSpace=wrap;rounded=0;" parent="WIyWlLk6GJQsqaUBKTNV-1" vertex="1">
          <mxGeometry x="-370" y="760" width="40" height="30" as="geometry" />
        </mxCell>
        <mxCell id="_VrNb_PbdVtPy9m1OPbP-153" value="" style="endArrow=open;endFill=1;endSize=12;html=1;rounded=0;exitX=0.724;exitY=-0.014;exitDx=0;exitDy=0;exitPerimeter=0;entryX=0.462;entryY=1.154;entryDx=0;entryDy=0;entryPerimeter=0;" parent="WIyWlLk6GJQsqaUBKTNV-1" source="_VrNb_PbdVtPy9m1OPbP-66" edge="1" target="_VrNb_PbdVtPy9m1OPbP-28">
          <mxGeometry width="160" relative="1" as="geometry">
            <mxPoint x="-230" y="1450" as="sourcePoint" />
            <mxPoint x="110" y="820" as="targetPoint" />
            <Array as="points">
              <mxPoint x="-330" y="920" />
              <mxPoint x="100" y="920" />
            </Array>
          </mxGeometry>
        </mxCell>
        <mxCell id="_VrNb_PbdVtPy9m1OPbP-154" value="1" style="text;html=1;align=center;verticalAlign=middle;whiteSpace=wrap;rounded=0;" parent="WIyWlLk6GJQsqaUBKTNV-1" vertex="1">
          <mxGeometry x="50" y="800" width="40" height="30" as="geometry" />
        </mxCell>
        <mxCell id="_VrNb_PbdVtPy9m1OPbP-155" value="1" style="text;html=1;align=center;verticalAlign=middle;whiteSpace=wrap;rounded=0;" parent="WIyWlLk6GJQsqaUBKTNV-1" vertex="1">
          <mxGeometry x="-293" y="1090" width="40" height="30" as="geometry" />
        </mxCell>
        <mxCell id="_VrNb_PbdVtPy9m1OPbP-157" value="1" style="text;html=1;align=center;verticalAlign=middle;whiteSpace=wrap;rounded=0;" parent="WIyWlLk6GJQsqaUBKTNV-1" vertex="1">
          <mxGeometry x="490" y="1030" width="40" height="30" as="geometry" />
        </mxCell>
        <mxCell id="_VrNb_PbdVtPy9m1OPbP-158" value="1" style="text;html=1;align=center;verticalAlign=middle;whiteSpace=wrap;rounded=0;" parent="WIyWlLk6GJQsqaUBKTNV-1" vertex="1">
          <mxGeometry x="490" y="1200" width="40" height="30" as="geometry" />
        </mxCell>
        <mxCell id="_VrNb_PbdVtPy9m1OPbP-160" value="" style="endArrow=open;endFill=1;endSize=12;html=1;rounded=0;exitX=0.5;exitY=0;exitDx=0;exitDy=0;entryX=1;entryY=0.5;entryDx=0;entryDy=0;" parent="WIyWlLk6GJQsqaUBKTNV-1" source="_VrNb_PbdVtPy9m1OPbP-77" target="-MCCmIzMc2nTo0CehHNH-3" edge="1">
          <mxGeometry width="160" relative="1" as="geometry">
            <mxPoint x="1181" y="1271" as="sourcePoint" />
            <mxPoint x="1180" y="1090" as="targetPoint" />
            <Array as="points">
              <mxPoint x="1120" y="703" />
            </Array>
          </mxGeometry>
        </mxCell>
        <mxCell id="_VrNb_PbdVtPy9m1OPbP-161" value="1" style="text;html=1;align=center;verticalAlign=middle;whiteSpace=wrap;rounded=0;" parent="WIyWlLk6GJQsqaUBKTNV-1" vertex="1">
          <mxGeometry x="840" y="660" width="40" height="30" as="geometry" />
        </mxCell>
        <mxCell id="_VrNb_PbdVtPy9m1OPbP-162" value="1" style="text;html=1;align=center;verticalAlign=middle;whiteSpace=wrap;rounded=0;" parent="WIyWlLk6GJQsqaUBKTNV-1" vertex="1">
          <mxGeometry x="1120" y="1050" width="40" height="30" as="geometry" />
        </mxCell>
        <mxCell id="-MCCmIzMc2nTo0CehHNH-7" value="" style="endArrow=open;endFill=1;endSize=12;html=1;rounded=0;exitX=1;exitY=0.5;exitDx=0;exitDy=0;entryX=0;entryY=0.5;entryDx=0;entryDy=0;" edge="1" parent="WIyWlLk6GJQsqaUBKTNV-1" source="-MCCmIzMc2nTo0CehHNH-6" target="_VrNb_PbdVtPy9m1OPbP-81">
          <mxGeometry width="160" relative="1" as="geometry">
            <mxPoint x="841" y="1611" as="sourcePoint" />
            <mxPoint x="840" y="1430" as="targetPoint" />
            <Array as="points">
              <mxPoint x="840" y="1605" />
              <mxPoint x="840" y="1190" />
            </Array>
          </mxGeometry>
        </mxCell>
        <mxCell id="-MCCmIzMc2nTo0CehHNH-8" value="1" style="text;html=1;align=center;verticalAlign=middle;whiteSpace=wrap;rounded=0;" vertex="1" parent="WIyWlLk6GJQsqaUBKTNV-1">
          <mxGeometry x="890" y="1200" width="40" height="30" as="geometry" />
        </mxCell>
        <mxCell id="-MCCmIzMc2nTo0CehHNH-9" value="1" style="text;html=1;align=center;verticalAlign=middle;whiteSpace=wrap;rounded=0;" vertex="1" parent="WIyWlLk6GJQsqaUBKTNV-1">
          <mxGeometry x="750" y="1610" width="40" height="30" as="geometry" />
        </mxCell>
        <mxCell id="-MCCmIzMc2nTo0CehHNH-10" value="" style="endArrow=open;endFill=1;endSize=12;html=1;rounded=0;entryX=1;entryY=0.5;entryDx=0;entryDy=0;exitX=0;exitY=0.5;exitDx=0;exitDy=0;" edge="1" parent="WIyWlLk6GJQsqaUBKTNV-1" source="-MCCmIzMc2nTo0CehHNH-6" target="_VrNb_PbdVtPy9m1OPbP-75">
          <mxGeometry width="160" relative="1" as="geometry">
            <mxPoint x="81" y="1628" as="sourcePoint" />
            <mxPoint x="80" y="1510" as="targetPoint" />
            <Array as="points">
              <mxPoint x="-200" y="1600" />
              <mxPoint x="-200" y="1280" />
            </Array>
          </mxGeometry>
        </mxCell>
        <mxCell id="-MCCmIzMc2nTo0CehHNH-11" value="1" style="text;html=1;align=center;verticalAlign=middle;whiteSpace=wrap;rounded=0;" vertex="1" parent="WIyWlLk6GJQsqaUBKTNV-1">
          <mxGeometry x="360" y="1570" width="40" height="30" as="geometry" />
        </mxCell>
        <mxCell id="-MCCmIzMc2nTo0CehHNH-12" value="1" style="text;html=1;align=center;verticalAlign=middle;whiteSpace=wrap;rounded=0;" vertex="1" parent="WIyWlLk6GJQsqaUBKTNV-1">
          <mxGeometry x="-240" y="1330" width="40" height="30" as="geometry" />
        </mxCell>
      </root>
    </mxGraphModel>
  </diagram>
</mxfile>
